<?xml version="1.0" standalone="no"?>
<!DOCTYPE svg PUBLIC "-//W3C//DTD SVG 20010904//EN"
 "http://www.w3.org/TR/2001/REC-SVG-20010904/DTD/svg10.dtd">
<svg version="1.0" xmlns="http://www.w3.org/2000/svg"
 width="362.000000pt" height="362.000000pt" viewBox="0 0 362.000000 362.000000"
 preserveAspectRatio="xMidYMid meet">
<metadata>
Created by potrace 1.14, written by Peter Selinger 2001-2017
</metadata>
<g transform="translate(0.000000,362.000000) scale(0.100000,-0.100000)"
fill="#000000" stroke="none">
<path d="M2579 3501 c-46 -37 -20 -154 41 -189 24 -14 45 -61 164 -367 75
-193 136 -357 136 -363 0 -15 -37 -35 -50 -27 -6 3 -10 13 -10 21 0 21 -5 18
-65 -31 -99 -80 -381 -235 -428 -235 -15 0 -66 11 -113 25 -49 14 -112 25
-145 25 -56 0 -59 1 -59 25 0 41 21 128 41 167 11 20 21 56 23 80 l4 43 178 6
c99 4 204 8 234 9 l55 2 -50 14 c-119 35 -215 78 -266 120 -30 24 -78 56 -106
72 -45 23 -54 32 -59 62 -3 19 -15 79 -26 134 -11 54 -17 109 -13 123 3 14 30
51 60 82 60 63 85 112 85 166 l0 36 -48 -48 c-27 -26 -93 -82 -148 -123 -144
-109 -192 -162 -255 -282 l-54 -103 -115 -82 c-134 -95 -191 -125 -286 -150
-82 -21 -89 -20 190 -31 l188 -7 4 -43 c2 -24 12 -60 23 -80 20 -39 41 -126
41 -167 0 -24 -3 -25 -59 -25 -35 0 -94 -11 -147 -27 -82 -24 -103 -27 -254
-26 -146 0 -268 12 -397 39 -31 6 -33 5 -33 -20 0 -25 -1 -26 -67 -26 -87 0
-129 -23 -139 -75 -14 -77 28 -115 128 -115 l49 0 -7 -115 -7 -115 66 -30
c167 -75 320 -75 477 1 68 34 102 59 168 126 46 46 87 81 91 78 22 -13 19 -86
-14 -314 -100 -686 -238 -1269 -355 -1502 l-30 -59 135 0 135 0 0 -26 c0 -38
59 -94 99 -94 61 0 121 52 121 105 0 13 25 15 190 15 131 0 190 -3 190 -11 0
-27 35 -81 61 -94 48 -25 87 -19 125 19 21 21 34 44 34 60 l0 26 134 0 135 0
-34 73 c-133 288 -287 975 -375 1669 -9 76 0 138 20 138 5 0 29 -14 54 -30 63
-43 160 -86 236 -106 90 -24 263 -24 355 0 73 19 208 76 218 93 3 5 -20 77
-52 159 -80 205 -77 187 -38 206 l33 16 245 -631 c134 -346 250 -637 258 -644
12 -12 16 -12 29 0 16 16 35 -36 -329 899 -151 390 -157 409 -144 435 19 35
19 47 0 84 -10 19 -26 32 -44 35 -28 6 -35 21 -169 368 -129 334 -139 365
-135 412 6 63 -17 118 -61 145 -38 23 -38 23 -67 0z m59 -33 c-6 -18 -28 -21
-28 -4 0 9 7 16 16 16 9 0 14 -5 12 -12z m-692 -934 c22 -11 47 -14 70 -11 36
6 36 6 30 -26 -4 -18 -10 -126 -14 -242 -7 -188 -11 -214 -30 -252 -50 -96
-154 -96 -204 0 -21 38 -23 58 -25 222 -2 99 -8 202 -13 228 -15 74 -15 76 28
70 23 -3 48 1 67 11 38 20 49 20 91 0z"/>
<path d="M1873 2503 c15 -2 39 -2 55 0 15 2 2 4 -28 4 -30 0 -43 -2 -27 -4z"/>
<path d="M40 1910 l0 -380 285 0 285 0 0 380 0 380 -285 0 -285 0 0 -380z"/>
</g>
</svg>
